<?xml version="1.0" standalone="no"?>
<!DOCTYPE svg PUBLIC "-//W3C//DTD SVG 20010904//EN"
 "http://www.w3.org/TR/2001/REC-SVG-20010904/DTD/svg10.dtd">
<svg version="1.0" xmlns="http://www.w3.org/2000/svg"
 width="24.000000pt" height="24.000000pt" viewBox="0 0 24.000000 24.000000"
 preserveAspectRatio="xMidYMid meet">

<g transform="translate(0.000000,24.000000) scale(0.100000,-0.100000)"
fill="#000000" stroke="none">
<path d="M157 190 c-20 -22 -40 -51 -43 -65 -3 -14 -10 -23 -14 -20 -5 3 -23
-15 -40 -40 -17 -25 -36 -45 -42 -45 -6 0 -9 -2 -6 -5 5 -5 90 26 98 36 3 3
16 10 29 14 14 4 19 10 13 14 -7 4 0 14 18 24 32 19 60 67 60 104 0 36 -31 29
-73 -17z"/>
</g>
</svg>
